<svg width="50" height="50" viewBox="0 0 50 50" fill="none" xmlns="http://www.w3.org/2000/svg">
<g clip-path="url(#clip0_306_27)">
<path fill-rule="evenodd" clip-rule="evenodd" d="M43.75 14.0625V43.75C43.75 45.4076 43.0915 46.9973 41.9194 48.1694C40.7473 49.3415 39.1576 50 37.5 50H34.375V46.875H37.5C38.3288 46.875 39.1237 46.5458 39.7097 45.9597C40.2958 45.3737 40.625 44.5788 40.625 43.75V14.0625H34.375C33.1318 14.0625 31.9395 13.5686 31.0604 12.6896C30.1814 11.8105 29.6875 10.6182 29.6875 9.375V3.125H12.5C11.6712 3.125 10.8763 3.45424 10.2903 4.04029C9.70424 4.62634 9.375 5.4212 9.375 6.25V34.375H6.25V6.25C6.25 4.5924 6.90848 3.00269 8.08058 1.83058C9.25268 0.65848 10.8424 0 12.5 0L29.6875 0L43.75 14.0625ZM10.9906 46.3781C11.0085 46.8705 11.1292 47.3537 11.3451 47.7967C11.5609 48.2396 11.867 48.6325 12.2437 48.95C12.65 49.2875 13.1469 49.55 13.7375 49.7375C14.3312 49.9281 15.0219 50.0219 15.8156 50.0219C16.8719 50.0219 17.7656 49.8562 18.5 49.5281C19.2375 49.2 19.8 48.7406 20.1844 48.1531C20.575 47.5625 20.7687 46.8781 20.7687 46.1031C20.7687 45.4031 20.6281 44.8219 20.35 44.3531C20.064 43.8849 19.6598 43.5002 19.1781 43.2375C18.6246 42.9317 18.0284 42.7105 17.4094 42.5813L15.4687 42.1313C15.0113 42.0472 14.5793 41.859 14.2063 41.5812C14.0637 41.4713 13.9487 41.3296 13.8706 41.1673C13.7925 41.0051 13.7533 40.8269 13.7562 40.6469C13.7562 40.1594 13.95 39.7594 14.3344 39.4469C14.725 39.1313 15.2594 38.9719 15.9344 38.9719C16.3812 38.9719 16.7656 39.0437 17.0906 39.1844C17.3898 39.3063 17.6539 39.5007 17.8594 39.75C18.0517 39.982 18.1809 40.2597 18.2344 40.5562H20.5781C20.5391 39.9199 20.3226 39.3071 19.9531 38.7875C19.5582 38.2266 19.018 37.7837 18.3906 37.5062C17.6233 37.1696 16.7908 37.0074 15.9531 37.0313C15.0375 37.0313 14.2312 37.1875 13.5281 37.5C12.825 37.8094 12.2781 38.25 11.8813 38.8156C11.4844 39.3844 11.2875 40.05 11.2875 40.8125C11.2875 41.4406 11.4125 41.9875 11.6687 42.45C11.925 42.9156 12.2937 43.2938 12.7687 43.5969C13.2437 43.8938 13.8062 44.1187 14.4531 44.2625L16.3844 44.7125C17.0313 44.8656 17.5125 45.0656 17.8312 45.3156C17.987 45.4343 18.1116 45.589 18.1943 45.7665C18.277 45.9439 18.3155 46.1388 18.3062 46.3344C18.3123 46.6565 18.2196 46.9727 18.0406 47.2406C17.8394 47.515 17.5624 47.7246 17.2438 47.8438C16.8969 47.9906 16.4656 48.0625 15.9531 48.0625C15.5875 48.0625 15.2562 48.0219 14.9531 47.9375C14.6769 47.8609 14.415 47.7395 14.1781 47.5781C13.9701 47.4435 13.792 47.2674 13.6549 47.061C13.5178 46.8546 13.4247 46.6221 13.3813 46.3781H10.9906ZM2.51875 42.7906C2.51875 42.0156 2.625 41.3531 2.8375 40.8125C3.02286 40.3132 3.35109 39.8796 3.78125 39.5656C4.21969 39.2725 4.73841 39.1229 5.26562 39.1375C5.73437 39.1375 6.15 39.2375 6.50937 39.4406C6.86155 39.6288 7.15551 39.9098 7.35938 40.2531C7.57718 40.6146 7.70573 41.0227 7.73437 41.4438H10.125V41.2187C10.1043 40.6431 9.96411 40.0781 9.71342 39.5595C9.46273 39.0409 9.10698 38.5801 8.66875 38.2062C8.21981 37.8258 7.70065 37.537 7.14063 37.3563C6.53082 37.1498 5.89065 37.0473 5.24688 37.0531C4.13438 37.0531 3.18437 37.2844 2.4 37.75C1.61875 38.2125 1.025 38.8719 0.6125 39.725C0.20625 40.5812 0 41.6 0 42.7844V44.3406C0 45.525 0.2 46.5406 0.603125 47.3906C1.0125 48.2375 1.60937 48.8906 2.39062 49.3469C3.17187 49.8 4.12188 50.025 5.24688 50.025C6.1625 50.025 6.97812 49.8531 7.7 49.5125C8.41875 49.1687 8.99375 48.7 9.41875 48.0938C9.84987 47.4732 10.0949 46.7425 10.125 45.9875V45.75H7.7375C7.70803 46.1524 7.58151 46.5416 7.36875 46.8844C7.16049 47.2162 6.86693 47.486 6.51875 47.6656C6.12854 47.8544 5.69899 47.9476 5.26562 47.9375C4.73766 47.9525 4.21733 47.8088 3.77188 47.525C3.34395 47.2203 3.01822 46.7933 2.8375 46.3C2.60901 45.6727 2.50087 45.008 2.51875 44.3406V42.7938V42.7906ZM28.2656 49.7844H25.2875L21.1063 37.2875H23.9719L26.7719 47.0937H26.8906L29.6656 37.2875H32.4125L28.2656 49.7875V49.7844Z" fill="#DE4F4F"/>
</g>
<defs>
<clipPath id="clip0_306_27">
<rect width="50" height="50" fill="white"/>
</clipPath>
</defs>
</svg>
