<svg width="50" height="50" viewBox="0 0 50 50" fill="none" xmlns="http://www.w3.org/2000/svg">
<g clip-path="url(#clip0_306_18)">
<path fill-rule="evenodd" clip-rule="evenodd" d="M43.7501 14.0625V34.375H40.6251V14.0625H34.3751C33.1319 14.0625 31.9396 13.5686 31.0605 12.6896C30.1814 11.8105 29.6876 10.6182 29.6876 9.375V3.125H12.5001C11.6713 3.125 10.8764 3.45424 10.2904 4.04029C9.70432 4.62634 9.37508 5.4212 9.37508 6.25V34.375H6.25008V6.25C6.25008 4.5924 6.90856 3.00269 8.08066 1.83058C9.25276 0.65848 10.8425 0 12.5001 0L29.6876 0L43.7501 14.0625ZM12.972 47.7812C12.7646 47.3411 12.6467 46.8642 12.6251 46.3781H15.0126C15.056 46.6221 15.1491 46.8546 15.2862 47.061C15.4233 47.2674 15.6014 47.4435 15.8095 47.5781C16.0282 47.7313 16.2907 47.85 16.5907 47.9344C16.8876 48.0219 17.2188 48.0625 17.5876 48.0625C18.1001 48.0625 18.5282 47.9906 18.8782 47.8438C19.1969 47.7246 19.4739 47.515 19.6751 47.2406C19.8526 46.9722 19.9441 46.6561 19.9376 46.3344C19.9468 46.1388 19.9084 45.9439 19.8256 45.7665C19.7429 45.589 19.6183 45.4343 19.4626 45.3156C19.147 45.0656 18.6626 44.8656 18.0157 44.7125L16.0845 44.2656C15.4892 44.1397 14.9196 43.9135 14.4001 43.5969C13.9408 43.3156 13.5619 42.9206 13.3001 42.45C13.0343 41.9459 12.9019 41.3822 12.9157 40.8125C12.9157 40.05 13.1157 39.3844 13.5095 38.8156C13.9095 38.25 14.4595 37.8094 15.1595 37.4969C15.8626 37.1844 16.672 37.0313 17.5876 37.0313C18.5376 37.0313 19.3501 37.1875 20.022 37.5062C20.7001 37.825 21.222 38.2531 21.5845 38.7875C21.9595 39.3187 22.1657 39.9094 22.2095 40.5562H19.8657C19.8122 40.2597 19.683 39.982 19.4907 39.75C19.2853 39.5007 19.0211 39.3063 18.722 39.1844C18.3552 39.0349 17.9616 38.9626 17.5657 38.9719C16.8907 38.9719 16.3563 39.1281 15.9657 39.4469C15.782 39.5875 15.6339 39.7694 15.5335 39.9779C15.433 40.1864 15.3831 40.4155 15.3876 40.6469C15.3876 41.025 15.5376 41.3344 15.8376 41.5844C16.2109 41.861 16.6429 42.0481 17.1001 42.1313L19.0407 42.5781C19.7188 42.7344 20.3095 42.9531 20.8095 43.2375C21.2916 43.5009 21.6958 43.8868 21.9813 44.3563C22.2626 44.8188 22.4032 45.4031 22.4032 46.1062C22.4032 46.8781 22.2063 47.5625 21.8157 48.1562C21.3997 48.7677 20.8143 49.2445 20.1313 49.5281C19.4001 49.8562 18.5063 50.0219 17.4501 50.0219C16.6563 50.0219 15.9626 49.9281 15.372 49.7406C14.8277 49.5773 14.3204 49.3099 13.8782 48.9531C13.4967 48.631 13.1878 48.2316 12.972 47.7812ZM3.27195 47.6781C3.09952 47.2121 3.01271 46.7188 3.0157 46.2219H5.4032C5.40972 46.5179 5.48915 46.8077 5.63445 47.0656C5.77834 47.311 5.98659 47.5123 6.23666 47.6478C6.48673 47.7833 6.7691 47.8478 7.0532 47.8344C7.64695 47.8344 8.08445 47.6625 8.37195 47.3219C8.65632 46.9781 8.80008 46.4938 8.80008 45.8656V37.2875H11.272V45.8031C11.272 47.1781 10.9001 48.2219 10.1563 48.9437C9.4157 49.6625 8.3907 50.0219 7.0782 50.0219C6.47359 50.0328 5.87206 49.9332 5.3032 49.7281C4.82462 49.5453 4.39089 49.2618 4.03132 48.8969C3.6981 48.5464 3.43973 48.1317 3.27195 47.6781ZM31.6813 42.725V44.3563C31.6813 45.1563 31.5595 45.825 31.3157 46.3594C31.1081 46.8536 30.7577 47.2747 30.3095 47.5688C29.8668 47.8359 29.3576 47.9724 28.8407 47.9625C28.3239 47.9714 27.815 47.835 27.372 47.5688C26.927 47.2727 26.5792 46.852 26.372 46.3594C26.1095 45.7251 25.9849 45.0423 26.0063 44.3563V42.725C26.0063 41.9187 26.1282 41.2531 26.372 40.7219C26.5792 40.2292 26.927 39.8086 27.372 39.5125C27.813 39.2406 28.3227 39.1007 28.8407 39.1094C29.3938 39.1094 29.8813 39.2438 30.3095 39.5125C30.7577 39.8065 31.1081 40.2276 31.3157 40.7219C31.5595 41.2531 31.6813 41.9187 31.6813 42.725ZM34.1907 44.3469V42.7438C34.1907 41.5656 33.9751 40.5531 33.5501 39.7031C33.148 38.8761 32.5053 38.1898 31.7063 37.7344C30.9157 37.2781 29.9594 37.0469 28.8438 37.0469C27.7313 37.0469 26.7751 37.2781 25.9688 37.7344C25.1696 38.1857 24.5274 38.8704 24.1282 39.6969C23.7001 40.5438 23.4876 41.5594 23.4876 42.7438V44.3469C23.4876 45.5187 23.7001 46.5312 24.1282 47.3875C24.5563 48.2344 25.1688 48.8875 25.9688 49.3437C26.7751 49.7969 27.7313 50.0219 28.8438 50.0219C29.9594 50.0219 30.9157 49.7969 31.7095 49.3437C32.5095 48.8875 33.122 48.2344 33.5501 47.3875C33.9751 46.5312 34.1907 45.5187 34.1907 44.3469ZM38.222 41.425V49.7844H35.8907V37.2875H37.9595L43.4345 45.6H43.5345V37.2875H45.8782V49.7875H43.8282L38.3251 41.425H38.2251H38.222Z" fill="#0654C9"/>
</g>
<defs>
<clipPath id="clip0_306_18">
<rect width="50" height="50" fill="white"/>
</clipPath>
</defs>
</svg>
